<svg width="500" height="500" viewBox="-110 -110 220 220" xmlns="http://www.w3.org/2000/svg">
  <rect x="-110" y="-110" width="220" height="220" fill="#2b2b2b" />
  <rect x="-95" y="-65" width="190" height="10" fill="#333333" />
  <rect x="-95" y="-25" width="190" height="10" fill="#333333" />
  <rect x="-95" y="15" width="190" height="10" fill="#333333" />
  <rect x="-95" y="55" width="190" height="10" fill="#333333" />
  <rect x="-65" y="-95" width="10" height="190" fill="#333333" />
  <rect x="-25" y="-95" width="10" height="190" fill="#333333" />
  <rect x="15" y="-95" width="10" height="190" fill="#333333" />
  <rect x="55" y="-95" width="10" height="190" fill="#333333" />
  <rect x="-95" y="-95" width="30" height="30" fill="#4a6b4a" />
  <rect x="-93.5" y="-93.5" width="12" height="12" fill="#e0d6c2" />
  <rect x="-78.5" y="-93.5" width="12" height="12" fill="#e0d6c2" />
  <rect x="-93.5" y="-78.5" width="12" height="12" fill="#e0d6c2" />
  <rect x="-78.5" y="-78.5" width="12" height="12" fill="#e0d6c2" />
  <rect x="-95" y="-55" width="30" height="30" fill="#4a6b4a" />
  <rect x="-93.5" y="-53.5" width="12" height="12" fill="#e0d6c2" />
  <rect x="-78.5" y="-53.5" width="12" height="12" fill="#e0d6c2" />
  <rect x="-93.5" y="-38.5" width="12" height="12" fill="#e0d6c2" />
  <rect x="-78.5" y="-38.5" width="12" height="12" fill="#e0d6c2" />
  <rect x="-95" y="-15" width="30" height="30" fill="#4a6b4a" />
  <rect x="-93.5" y="-13.5" width="12" height="12" fill="#e0d6c2" />
  <rect x="-78.5" y="-13.5" width="12" height="12" fill="#e0d6c2" />
  <rect x="-93.5" y="1.5" width="12" height="12" fill="#e0d6c2" />
  <rect x="-78.5" y="1.5" width="12" height="12" fill="#e0d6c2" />
  <rect x="-95" y="25" width="30" height="30" fill="#4a6b4a" />
  <rect x="-93.5" y="26.5" width="12" height="12" fill="#e0d6c2" />
  <rect x="-78.5" y="26.5" width="12" height="12" fill="#e0d6c2" />
  <rect x="-93.5" y="41.5" width="12" height="12" fill="#e0d6c2" />
  <rect x="-78.5" y="41.5" width="12" height="12" fill="#e0d6c2" />
  <rect x="-95" y="65" width="30" height="30" fill="#4a6b4a" />
  <rect x="-93.5" y="66.5" width="12" height="12" fill="#e0d6c2" />
  <rect x="-78.5" y="66.5" width="12" height="12" fill="#e0d6c2" />
  <rect x="-93.5" y="81.5" width="12" height="12" fill="#e0d6c2" />
  <rect x="-78.5" y="81.5" width="12" height="12" fill="#e0d6c2" />
  <rect x="-55" y="-95" width="30" height="30" fill="#4a6b4a" />
  <rect x="-53.5" y="-93.5" width="12" height="12" fill="#e0d6c2" />
  <rect x="-38.5" y="-93.5" width="12" height="12" fill="#e0d6c2" />
  <rect x="-53.5" y="-78.5" width="12" height="12" fill="#e0d6c2" />
  <rect x="-38.5" y="-78.5" width="12" height="12" fill="#e0d6c2" />
  <rect x="-55" y="-55" width="30" height="30" fill="#228B22" />
  <text x="-40" y="-40" font-family="Arial" font-size="5" fill="white" text-anchor="middle" dominant-baseline="middle">Park</text>
  <rect x="-55" y="-15" width="30" height="30" fill="#4a6b4a" />
  <rect x="-53.5" y="-13.5" width="12" height="12" fill="#e0d6c2" />
  <rect x="-38.5" y="-13.5" width="12" height="12" fill="#e0d6c2" />
  <rect x="-53.5" y="1.5" width="12" height="12" fill="#e0d6c2" />
  <rect x="-38.5" y="1.5" width="12" height="12" fill="#e0d6c2" />
  <rect x="-55" y="25" width="30" height="30" fill="#228B22" />
  <text x="-40" y="40" font-family="Arial" font-size="5" fill="white" text-anchor="middle" dominant-baseline="middle">Park</text>
  <rect x="-55" y="65" width="30" height="30" fill="#4a6b4a" />
  <rect x="-53.5" y="66.5" width="12" height="12" fill="#e0d6c2" />
  <rect x="-38.5" y="66.5" width="12" height="12" fill="#e0d6c2" />
  <rect x="-53.5" y="81.5" width="12" height="12" fill="#e0d6c2" />
  <rect x="-38.5" y="81.5" width="12" height="12" fill="#e0d6c2" />
  <rect x="-15" y="-95" width="30" height="30" fill="#4a6b4a" />
  <rect x="-13.5" y="-93.5" width="12" height="12" fill="#e0d6c2" />
  <rect x="1.5" y="-93.5" width="12" height="12" fill="#e0d6c2" />
  <rect x="-13.5" y="-78.5" width="12" height="12" fill="#e0d6c2" />
  <rect x="1.5" y="-78.5" width="12" height="12" fill="#e0d6c2" />
  <rect x="-15" y="-55" width="30" height="30" fill="#4a6b4a" />
  <rect x="-13.5" y="-53.5" width="12" height="12" fill="#e0d6c2" />
  <rect x="1.5" y="-53.5" width="12" height="12" fill="#e0d6c2" />
  <rect x="-13.5" y="-38.5" width="12" height="12" fill="#e0d6c2" />
  <rect x="1.5" y="-38.5" width="12" height="12" fill="#e0d6c2" />
  <rect x="-15" y="-15" width="30" height="30" fill="#1a4d6e" />
  <text x="0" y="0" font-family="Arial" font-size="5" fill="white" text-anchor="middle" dominant-baseline="middle">Dark Store</text>
  <rect x="-15" y="25" width="30" height="30" fill="#4a6b4a" />
  <rect x="-13.5" y="26.5" width="12" height="12" fill="#e0d6c2" />
  <rect x="1.5" y="26.5" width="12" height="12" fill="#e0d6c2" />
  <rect x="-13.5" y="41.5" width="12" height="12" fill="#e0d6c2" />
  <rect x="1.5" y="41.5" width="12" height="12" fill="#e0d6c2" />
  <rect x="-15" y="65" width="30" height="30" fill="#4a6b4a" />
  <rect x="-13.5" y="66.5" width="12" height="12" fill="#e0d6c2" />
  <rect x="1.5" y="66.5" width="12" height="12" fill="#e0d6c2" />
  <rect x="-13.5" y="81.5" width="12" height="12" fill="#e0d6c2" />
  <rect x="1.5" y="81.5" width="12" height="12" fill="#e0d6c2" />
  <rect x="25" y="-95" width="30" height="30" fill="#4a6b4a" />
  <rect x="26.5" y="-93.5" width="12" height="12" fill="#e0d6c2" />
  <rect x="41.5" y="-93.5" width="12" height="12" fill="#e0d6c2" />
  <rect x="26.5" y="-78.5" width="12" height="12" fill="#e0d6c2" />
  <rect x="41.5" y="-78.5" width="12" height="12" fill="#e0d6c2" />
  <rect x="25" y="-55" width="30" height="30" fill="#228B22" />
  <text x="40" y="-40" font-family="Arial" font-size="5" fill="white" text-anchor="middle" dominant-baseline="middle">Park</text>
  <rect x="25" y="-15" width="30" height="30" fill="#4a6b4a" />
  <rect x="26.5" y="-13.5" width="12" height="12" fill="#e0d6c2" />
  <rect x="41.5" y="-13.5" width="12" height="12" fill="#e0d6c2" />
  <rect x="26.5" y="1.5" width="12" height="12" fill="#e0d6c2" />
  <rect x="41.5" y="1.5" width="12" height="12" fill="#e0d6c2" />
  <rect x="25" y="25" width="30" height="30" fill="#228B22" />
  <text x="40" y="40" font-family="Arial" font-size="5" fill="white" text-anchor="middle" dominant-baseline="middle">Park</text>
  <rect x="25" y="65" width="30" height="30" fill="#4a6b4a" />
  <rect x="26.5" y="66.5" width="12" height="12" fill="#e0d6c2" />
  <rect x="41.5" y="66.5" width="12" height="12" fill="#e0d6c2" />
  <rect x="26.5" y="81.5" width="12" height="12" fill="#e0d6c2" />
  <rect x="41.5" y="81.5" width="12" height="12" fill="#e0d6c2" />
  <rect x="65" y="-95" width="30" height="30" fill="#4a6b4a" />
  <rect x="66.5" y="-93.5" width="12" height="12" fill="#e0d6c2" />
  <rect x="81.5" y="-93.5" width="12" height="12" fill="#e0d6c2" />
  <rect x="66.5" y="-78.5" width="12" height="12" fill="#e0d6c2" />
  <rect x="81.5" y="-78.5" width="12" height="12" fill="#e0d6c2" />
  <rect x="65" y="-55" width="30" height="30" fill="#4a6b4a" />
  <rect x="66.5" y="-53.5" width="12" height="12" fill="#e0d6c2" />
  <rect x="81.5" y="-53.5" width="12" height="12" fill="#e0d6c2" />
  <rect x="66.5" y="-38.5" width="12" height="12" fill="#e0d6c2" />
  <rect x="81.5" y="-38.5" width="12" height="12" fill="#e0d6c2" />
  <rect x="65" y="-15" width="30" height="30" fill="#4a6b4a" />
  <rect x="66.5" y="-13.5" width="12" height="12" fill="#e0d6c2" />
  <rect x="81.5" y="-13.5" width="12" height="12" fill="#e0d6c2" />
  <rect x="66.5" y="1.5" width="12" height="12" fill="#e0d6c2" />
  <rect x="81.5" y="1.5" width="12" height="12" fill="#e0d6c2" />
  <rect x="65" y="25" width="30" height="30" fill="#4a6b4a" />
  <rect x="66.5" y="26.5" width="12" height="12" fill="#e0d6c2" />
  <rect x="81.5" y="26.5" width="12" height="12" fill="#e0d6c2" />
  <rect x="66.5" y="41.5" width="12" height="12" fill="#e0d6c2" />
  <rect x="81.5" y="41.5" width="12" height="12" fill="#e0d6c2" />
  <rect x="65" y="65" width="30" height="30" fill="#4a6b4a" />
  <rect x="66.5" y="66.5" width="12" height="12" fill="#e0d6c2" />
  <rect x="81.5" y="66.5" width="12" height="12" fill="#e0d6c2" />
  <rect x="66.5" y="81.5" width="12" height="12" fill="#e0d6c2" />
  <rect x="81.5" y="81.5" width="12" height="12" fill="#e0d6c2" />
</svg>