<svg width="500" height="500" viewBox="-115 -115 230 230" xmlns="http://www.w3.org/2000/svg">
  <defs>
    <!-- Road dash pattern -->
    <pattern id="roadDash" patternUnits="userSpaceOnUse" width="8" height="2" patternTransform="rotate(0)">
      <rect x="0" y="0" width="4" height="1" fill="#3d4255" opacity="0.5"/>
    </pattern>
    <!-- Park grass pattern -->
    <pattern id="grassPattern" patternUnits="userSpaceOnUse" width="6" height="6">
      <rect width="6" height="6" fill="#1a4d2a"/>
      <circle cx="1.5" cy="1.5" r="0.5" fill="#2d7a42" opacity="0.3"/>
      <circle cx="4.5" cy="4.5" r="0.5" fill="#2d7a42" opacity="0.3"/>
    </pattern>
    <!-- Glow filter for delivery zones -->
    <filter id="glow">
      <feGaussianBlur stdDeviation="1.5" result="blur"/>
      <feMerge>
        <feMergeNode in="blur"/>
        <feMergeNode in="SourceGraphic"/>
      </feMerge>
    </filter>
    <!-- Shadow for buildings -->
    <filter id="bldgShadow">
      <feDropShadow dx="0.5" dy="0.5" stdDeviation="0.5" flood-color="#000" flood-opacity="0.3"/>
    </filter>
  </defs>

  <!-- Background -->
  <rect x="-115" y="-115" width="230" height="230" fill="#141822" rx="6"/>

  <rect x="-95" y="-65" width="190" height="10" fill="#2a2e3e" rx="1"/>
  <line x1="-95" y1="-60" x2="95" y2="-60" stroke="#3d4255" stroke-width="0.4" stroke-dasharray="3,2" opacity="0.6"/>
  <rect x="-95" y="-25" width="190" height="10" fill="#2a2e3e" rx="1"/>
  <line x1="-95" y1="-20" x2="95" y2="-20" stroke="#3d4255" stroke-width="0.4" stroke-dasharray="3,2" opacity="0.6"/>
  <rect x="-95" y="15" width="190" height="10" fill="#2a2e3e" rx="1"/>
  <line x1="-95" y1="20" x2="95" y2="20" stroke="#3d4255" stroke-width="0.4" stroke-dasharray="3,2" opacity="0.6"/>
  <rect x="-95" y="55" width="190" height="10" fill="#2a2e3e" rx="1"/>
  <line x1="-95" y1="60" x2="95" y2="60" stroke="#3d4255" stroke-width="0.4" stroke-dasharray="3,2" opacity="0.6"/>
  <rect x="-65" y="-95" width="10" height="190" fill="#2a2e3e" rx="1"/>
  <line x1="-60" y1="-95" x2="-60" y2="95" stroke="#3d4255" stroke-width="0.4" stroke-dasharray="3,2" opacity="0.6"/>
  <rect x="-25" y="-95" width="10" height="190" fill="#2a2e3e" rx="1"/>
  <line x1="-20" y1="-95" x2="-20" y2="95" stroke="#3d4255" stroke-width="0.4" stroke-dasharray="3,2" opacity="0.6"/>
  <rect x="15" y="-95" width="10" height="190" fill="#2a2e3e" rx="1"/>
  <line x1="20" y1="-95" x2="20" y2="95" stroke="#3d4255" stroke-width="0.4" stroke-dasharray="3,2" opacity="0.6"/>
  <rect x="55" y="-95" width="10" height="190" fill="#2a2e3e" rx="1"/>
  <line x1="60" y1="-95" x2="60" y2="95" stroke="#3d4255" stroke-width="0.4" stroke-dasharray="3,2" opacity="0.6"/>
  <rect x="-95" y="-95" width="30" height="30" fill="#1c3a2a" rx="2"/>
  <rect x="-92.6" y="-92.6" width="10.5" height="10.5" fill="#c4b99a" rx="1" filter="url(#bldgShadow)"/>
  <rect x="-92.6" y="-92.6" width="10.5" height="10.5" fill="none" stroke="#9a9078" stroke-width="0.3" rx="1"/>
  <rect x="-77.9" y="-92.6" width="10.5" height="10.5" fill="#c4b99a" rx="1" filter="url(#bldgShadow)"/>
  <rect x="-77.9" y="-92.6" width="10.5" height="10.5" fill="none" stroke="#9a9078" stroke-width="0.3" rx="1"/>
  <rect x="-92.6" y="-77.9" width="10.5" height="10.5" fill="#c4b99a" rx="1" filter="url(#bldgShadow)"/>
  <rect x="-92.6" y="-77.9" width="10.5" height="10.5" fill="none" stroke="#9a9078" stroke-width="0.3" rx="1"/>
  <rect x="-77.9" y="-77.9" width="10.5" height="10.5" fill="#c4b99a" rx="1" filter="url(#bldgShadow)"/>
  <rect x="-77.9" y="-77.9" width="10.5" height="10.5" fill="none" stroke="#9a9078" stroke-width="0.3" rx="1"/>
  <circle cx="-80" cy="-71" r="2" fill="#44cc8855" stroke="#44cc88" stroke-width="0.4" filter="url(#glow)"/>
  <rect x="-95" y="-55" width="30" height="30" fill="#1c3a2a" rx="2"/>
  <rect x="-92.6" y="-52.6" width="10.5" height="10.5" fill="#c4b99a" rx="1" filter="url(#bldgShadow)"/>
  <rect x="-92.6" y="-52.6" width="10.5" height="10.5" fill="none" stroke="#9a9078" stroke-width="0.3" rx="1"/>
  <rect x="-77.9" y="-52.6" width="10.5" height="10.5" fill="#c4b99a" rx="1" filter="url(#bldgShadow)"/>
  <rect x="-77.9" y="-52.6" width="10.5" height="10.5" fill="none" stroke="#9a9078" stroke-width="0.3" rx="1"/>
  <rect x="-92.6" y="-37.9" width="10.5" height="10.5" fill="#c4b99a" rx="1" filter="url(#bldgShadow)"/>
  <rect x="-92.6" y="-37.9" width="10.5" height="10.5" fill="none" stroke="#9a9078" stroke-width="0.3" rx="1"/>
  <rect x="-77.9" y="-37.9" width="10.5" height="10.5" fill="#c4b99a" rx="1" filter="url(#bldgShadow)"/>
  <rect x="-77.9" y="-37.9" width="10.5" height="10.5" fill="none" stroke="#9a9078" stroke-width="0.3" rx="1"/>
  <circle cx="-80" cy="-31" r="2" fill="#44cc8855" stroke="#44cc88" stroke-width="0.4" filter="url(#glow)"/>
  <rect x="-95" y="-15" width="30" height="30" fill="#1c3a2a" rx="2"/>
  <rect x="-92.6" y="-12.6" width="10.5" height="10.5" fill="#c4b99a" rx="1" filter="url(#bldgShadow)"/>
  <rect x="-92.6" y="-12.6" width="10.5" height="10.5" fill="none" stroke="#9a9078" stroke-width="0.3" rx="1"/>
  <rect x="-77.9" y="-12.6" width="10.5" height="10.5" fill="#c4b99a" rx="1" filter="url(#bldgShadow)"/>
  <rect x="-77.9" y="-12.6" width="10.5" height="10.5" fill="none" stroke="#9a9078" stroke-width="0.3" rx="1"/>
  <rect x="-92.6" y="2.0999999999999996" width="10.5" height="10.5" fill="#c4b99a" rx="1" filter="url(#bldgShadow)"/>
  <rect x="-92.6" y="2.0999999999999996" width="10.5" height="10.5" fill="none" stroke="#9a9078" stroke-width="0.3" rx="1"/>
  <rect x="-77.9" y="2.0999999999999996" width="10.5" height="10.5" fill="#c4b99a" rx="1" filter="url(#bldgShadow)"/>
  <rect x="-77.9" y="2.0999999999999996" width="10.5" height="10.5" fill="none" stroke="#9a9078" stroke-width="0.3" rx="1"/>
  <circle cx="-80" cy="9" r="2" fill="#44cc8855" stroke="#44cc88" stroke-width="0.4" filter="url(#glow)"/>
  <rect x="-95" y="25" width="30" height="30" fill="#1c3a2a" rx="2"/>
  <rect x="-92.6" y="27.4" width="10.5" height="10.5" fill="#c4b99a" rx="1" filter="url(#bldgShadow)"/>
  <rect x="-92.6" y="27.4" width="10.5" height="10.5" fill="none" stroke="#9a9078" stroke-width="0.3" rx="1"/>
  <rect x="-77.9" y="27.4" width="10.5" height="10.5" fill="#c4b99a" rx="1" filter="url(#bldgShadow)"/>
  <rect x="-77.9" y="27.4" width="10.5" height="10.5" fill="none" stroke="#9a9078" stroke-width="0.3" rx="1"/>
  <rect x="-92.6" y="42.1" width="10.5" height="10.5" fill="#c4b99a" rx="1" filter="url(#bldgShadow)"/>
  <rect x="-92.6" y="42.1" width="10.5" height="10.5" fill="none" stroke="#9a9078" stroke-width="0.3" rx="1"/>
  <rect x="-77.9" y="42.1" width="10.5" height="10.5" fill="#c4b99a" rx="1" filter="url(#bldgShadow)"/>
  <rect x="-77.9" y="42.1" width="10.5" height="10.5" fill="none" stroke="#9a9078" stroke-width="0.3" rx="1"/>
  <circle cx="-80" cy="49" r="2" fill="#44cc8855" stroke="#44cc88" stroke-width="0.4" filter="url(#glow)"/>
  <rect x="-95" y="65" width="30" height="30" fill="#1c3a2a" rx="2"/>
  <rect x="-92.6" y="67.4" width="10.5" height="10.5" fill="#c4b99a" rx="1" filter="url(#bldgShadow)"/>
  <rect x="-92.6" y="67.4" width="10.5" height="10.5" fill="none" stroke="#9a9078" stroke-width="0.3" rx="1"/>
  <rect x="-77.9" y="67.4" width="10.5" height="10.5" fill="#c4b99a" rx="1" filter="url(#bldgShadow)"/>
  <rect x="-77.9" y="67.4" width="10.5" height="10.5" fill="none" stroke="#9a9078" stroke-width="0.3" rx="1"/>
  <rect x="-92.6" y="82.1" width="10.5" height="10.5" fill="#c4b99a" rx="1" filter="url(#bldgShadow)"/>
  <rect x="-92.6" y="82.1" width="10.5" height="10.5" fill="none" stroke="#9a9078" stroke-width="0.3" rx="1"/>
  <rect x="-77.9" y="82.1" width="10.5" height="10.5" fill="#c4b99a" rx="1" filter="url(#bldgShadow)"/>
  <rect x="-77.9" y="82.1" width="10.5" height="10.5" fill="none" stroke="#9a9078" stroke-width="0.3" rx="1"/>
  <circle cx="-80" cy="89" r="2" fill="#44cc8855" stroke="#44cc88" stroke-width="0.4" filter="url(#glow)"/>
  <rect x="-55" y="-95" width="30" height="30" fill="#1c3a2a" rx="2"/>
  <rect x="-52.6" y="-92.6" width="10.5" height="10.5" fill="#c4b99a" rx="1" filter="url(#bldgShadow)"/>
  <rect x="-52.6" y="-92.6" width="10.5" height="10.5" fill="none" stroke="#9a9078" stroke-width="0.3" rx="1"/>
  <rect x="-37.9" y="-92.6" width="10.5" height="10.5" fill="#c4b99a" rx="1" filter="url(#bldgShadow)"/>
  <rect x="-37.9" y="-92.6" width="10.5" height="10.5" fill="none" stroke="#9a9078" stroke-width="0.3" rx="1"/>
  <rect x="-52.6" y="-77.9" width="10.5" height="10.5" fill="#c4b99a" rx="1" filter="url(#bldgShadow)"/>
  <rect x="-52.6" y="-77.9" width="10.5" height="10.5" fill="none" stroke="#9a9078" stroke-width="0.3" rx="1"/>
  <rect x="-37.9" y="-77.9" width="10.5" height="10.5" fill="#c4b99a" rx="1" filter="url(#bldgShadow)"/>
  <rect x="-37.9" y="-77.9" width="10.5" height="10.5" fill="none" stroke="#9a9078" stroke-width="0.3" rx="1"/>
  <circle cx="-40" cy="-71" r="2" fill="#44cc8855" stroke="#44cc88" stroke-width="0.4" filter="url(#glow)"/>
  <rect x="-55" y="-55" width="30" height="30" fill="url(#grassPattern)" rx="2"/>
  <rect x="-55" y="-55" width="30" height="30" fill="none" stroke="#1a5c2e" stroke-width="0.4" rx="2"/>
  <circle cx="-51" cy="-47" r="2.5" fill="#2d7a42" opacity="0.7"/>
  <circle cx="-51" cy="-47" r="1.5" fill="#1a5c2e" opacity="0.5"/>
  <circle cx="-39.686026802562424" cy="-48.43267562907355" r="2.5" fill="#2d7a42" opacity="0.7"/>
  <circle cx="-39.686026802562424" cy="-48.43267562907355" r="1.5" fill="#1a5c2e" opacity="0.5"/>
  <circle cx="-29.01878528861026" cy="-50.678143058152905" r="2.5" fill="#2d7a42" opacity="0.7"/>
  <circle cx="-29.01878528861026" cy="-50.678143058152905" r="1.5" fill="#1a5c2e" opacity="0.5"/>
  <circle cx="-49.32668872292789" cy="-36.519375825717646" r="2.5" fill="#2d7a42" opacity="0.7"/>
  <circle cx="-49.32668872292789" cy="-36.519375825717646" r="1.5" fill="#1a5c2e" opacity="0.5"/>
  <circle cx="-40.458188423384264" cy="-34.183835876373216" r="2.5" fill="#2d7a42" opacity="0.7"/>
  <circle cx="-40.458188423384264" cy="-34.183835876373216" r="1.5" fill="#1a5c2e" opacity="0.5"/>
  <circle cx="-31.8563653389923" cy="-33.01759437627305" r="2.5" fill="#2d7a42" opacity="0.7"/>
  <circle cx="-31.8563653389923" cy="-33.01759437627305" r="1.5" fill="#1a5c2e" opacity="0.5"/>
  <text x="-40" y="-27" font-family="Arial, sans-serif" font-size="2.8" fill="#8890a0" text-anchor="middle" opacity="0.7">Park</text>
  <rect x="-55" y="-15" width="30" height="30" fill="#1c3a2a" rx="2"/>
  <rect x="-52.6" y="-12.6" width="10.5" height="10.5" fill="#c4b99a" rx="1" filter="url(#bldgShadow)"/>
  <rect x="-52.6" y="-12.6" width="10.5" height="10.5" fill="none" stroke="#9a9078" stroke-width="0.3" rx="1"/>
  <rect x="-37.9" y="-12.6" width="10.5" height="10.5" fill="#c4b99a" rx="1" filter="url(#bldgShadow)"/>
  <rect x="-37.9" y="-12.6" width="10.5" height="10.5" fill="none" stroke="#9a9078" stroke-width="0.3" rx="1"/>
  <rect x="-52.6" y="2.0999999999999996" width="10.5" height="10.5" fill="#c4b99a" rx="1" filter="url(#bldgShadow)"/>
  <rect x="-52.6" y="2.0999999999999996" width="10.5" height="10.5" fill="none" stroke="#9a9078" stroke-width="0.3" rx="1"/>
  <rect x="-37.9" y="2.0999999999999996" width="10.5" height="10.5" fill="#c4b99a" rx="1" filter="url(#bldgShadow)"/>
  <rect x="-37.9" y="2.0999999999999996" width="10.5" height="10.5" fill="none" stroke="#9a9078" stroke-width="0.3" rx="1"/>
  <circle cx="-40" cy="9" r="2" fill="#44cc8855" stroke="#44cc88" stroke-width="0.4" filter="url(#glow)"/>
  <rect x="-55" y="25" width="30" height="30" fill="url(#grassPattern)" rx="2"/>
  <rect x="-55" y="25" width="30" height="30" fill="none" stroke="#1a5c2e" stroke-width="0.4" rx="2"/>
  <circle cx="-51" cy="33" r="2.5" fill="#2d7a42" opacity="0.7"/>
  <circle cx="-51" cy="33" r="1.5" fill="#1a5c2e" opacity="0.5"/>
  <circle cx="-39.686026802562424" cy="31.567324370926453" r="2.5" fill="#2d7a42" opacity="0.7"/>
  <circle cx="-39.686026802562424" cy="31.567324370926453" r="1.5" fill="#1a5c2e" opacity="0.5"/>
  <circle cx="-29.01878528861026" cy="29.321856941847095" r="2.5" fill="#2d7a42" opacity="0.7"/>
  <circle cx="-29.01878528861026" cy="29.321856941847095" r="1.5" fill="#1a5c2e" opacity="0.5"/>
  <circle cx="-49.32668872292789" cy="43.480624174282354" r="2.5" fill="#2d7a42" opacity="0.7"/>
  <circle cx="-49.32668872292789" cy="43.480624174282354" r="1.5" fill="#1a5c2e" opacity="0.5"/>
  <circle cx="-40.458188423384264" cy="45.816164123626784" r="2.5" fill="#2d7a42" opacity="0.7"/>
  <circle cx="-40.458188423384264" cy="45.816164123626784" r="1.5" fill="#1a5c2e" opacity="0.5"/>
  <circle cx="-31.8563653389923" cy="46.98240562372695" r="2.5" fill="#2d7a42" opacity="0.7"/>
  <circle cx="-31.8563653389923" cy="46.98240562372695" r="1.5" fill="#1a5c2e" opacity="0.5"/>
  <text x="-40" y="53" font-family="Arial, sans-serif" font-size="2.8" fill="#8890a0" text-anchor="middle" opacity="0.7">Park</text>
  <rect x="-55" y="65" width="30" height="30" fill="#1c3a2a" rx="2"/>
  <rect x="-52.6" y="67.4" width="10.5" height="10.5" fill="#c4b99a" rx="1" filter="url(#bldgShadow)"/>
  <rect x="-52.6" y="67.4" width="10.5" height="10.5" fill="none" stroke="#9a9078" stroke-width="0.3" rx="1"/>
  <rect x="-37.9" y="67.4" width="10.5" height="10.5" fill="#c4b99a" rx="1" filter="url(#bldgShadow)"/>
  <rect x="-37.9" y="67.4" width="10.5" height="10.5" fill="none" stroke="#9a9078" stroke-width="0.3" rx="1"/>
  <rect x="-52.6" y="82.1" width="10.5" height="10.5" fill="#c4b99a" rx="1" filter="url(#bldgShadow)"/>
  <rect x="-52.6" y="82.1" width="10.5" height="10.5" fill="none" stroke="#9a9078" stroke-width="0.3" rx="1"/>
  <rect x="-37.9" y="82.1" width="10.5" height="10.5" fill="#c4b99a" rx="1" filter="url(#bldgShadow)"/>
  <rect x="-37.9" y="82.1" width="10.5" height="10.5" fill="none" stroke="#9a9078" stroke-width="0.3" rx="1"/>
  <circle cx="-40" cy="89" r="2" fill="#44cc8855" stroke="#44cc88" stroke-width="0.4" filter="url(#glow)"/>
  <rect x="-15" y="-95" width="30" height="30" fill="#1c3a2a" rx="2"/>
  <rect x="-12.6" y="-92.6" width="10.5" height="10.5" fill="#c4b99a" rx="1" filter="url(#bldgShadow)"/>
  <rect x="-12.6" y="-92.6" width="10.5" height="10.5" fill="none" stroke="#9a9078" stroke-width="0.3" rx="1"/>
  <rect x="2.0999999999999996" y="-92.6" width="10.5" height="10.5" fill="#c4b99a" rx="1" filter="url(#bldgShadow)"/>
  <rect x="2.0999999999999996" y="-92.6" width="10.5" height="10.5" fill="none" stroke="#9a9078" stroke-width="0.3" rx="1"/>
  <rect x="-12.6" y="-77.9" width="10.5" height="10.5" fill="#c4b99a" rx="1" filter="url(#bldgShadow)"/>
  <rect x="-12.6" y="-77.9" width="10.5" height="10.5" fill="none" stroke="#9a9078" stroke-width="0.3" rx="1"/>
  <rect x="2.0999999999999996" y="-77.9" width="10.5" height="10.5" fill="#c4b99a" rx="1" filter="url(#bldgShadow)"/>
  <rect x="2.0999999999999996" y="-77.9" width="10.5" height="10.5" fill="none" stroke="#9a9078" stroke-width="0.3" rx="1"/>
  <circle cx="0" cy="-71" r="2" fill="#44cc8855" stroke="#44cc88" stroke-width="0.4" filter="url(#glow)"/>
  <rect x="-15" y="-55" width="30" height="30" fill="#1c3a2a" rx="2"/>
  <rect x="-12.6" y="-52.6" width="10.5" height="10.5" fill="#c4b99a" rx="1" filter="url(#bldgShadow)"/>
  <rect x="-12.6" y="-52.6" width="10.5" height="10.5" fill="none" stroke="#9a9078" stroke-width="0.3" rx="1"/>
  <rect x="2.0999999999999996" y="-52.6" width="10.5" height="10.5" fill="#c4b99a" rx="1" filter="url(#bldgShadow)"/>
  <rect x="2.0999999999999996" y="-52.6" width="10.5" height="10.5" fill="none" stroke="#9a9078" stroke-width="0.3" rx="1"/>
  <rect x="-12.6" y="-37.9" width="10.5" height="10.5" fill="#c4b99a" rx="1" filter="url(#bldgShadow)"/>
  <rect x="-12.6" y="-37.9" width="10.5" height="10.5" fill="none" stroke="#9a9078" stroke-width="0.3" rx="1"/>
  <rect x="2.0999999999999996" y="-37.9" width="10.5" height="10.5" fill="#c4b99a" rx="1" filter="url(#bldgShadow)"/>
  <rect x="2.0999999999999996" y="-37.9" width="10.5" height="10.5" fill="none" stroke="#9a9078" stroke-width="0.3" rx="1"/>
  <circle cx="0" cy="-31" r="2" fill="#44cc8855" stroke="#44cc88" stroke-width="0.4" filter="url(#glow)"/>
  <rect x="-15" y="-15" width="30" height="30" fill="#1a3f5e" rx="2"/>
  <rect x="-12" y="-9" width="24" height="18" fill="#245980" rx="1.5" filter="url(#bldgShadow)"/>
  <circle cx="5" cy="0" r="3" fill="none" stroke="#fc8019" stroke-width="0.6" opacity="0.7"/>
  <text x="5" y="0.5" font-family="Arial, sans-serif" font-size="2.5" fill="#fc8019" text-anchor="middle" dominant-baseline="middle" font-weight="bold">H</text>
  <rect x="-7" y="-7" width="4" height="14" fill="#111" rx="0.5" opacity="0.6"/>
  <text x="0" y="13" font-family="Arial, sans-serif" font-size="3" fill="#fc8019" text-anchor="middle" font-weight="bold">DARK STORE</text>
  <rect x="-15" y="25" width="30" height="30" fill="#1c3a2a" rx="2"/>
  <rect x="-12.6" y="27.4" width="10.5" height="10.5" fill="#c4b99a" rx="1" filter="url(#bldgShadow)"/>
  <rect x="-12.6" y="27.4" width="10.5" height="10.5" fill="none" stroke="#9a9078" stroke-width="0.3" rx="1"/>
  <rect x="2.0999999999999996" y="27.4" width="10.5" height="10.5" fill="#c4b99a" rx="1" filter="url(#bldgShadow)"/>
  <rect x="2.0999999999999996" y="27.4" width="10.5" height="10.5" fill="none" stroke="#9a9078" stroke-width="0.3" rx="1"/>
  <rect x="-12.6" y="42.1" width="10.5" height="10.5" fill="#c4b99a" rx="1" filter="url(#bldgShadow)"/>
  <rect x="-12.6" y="42.1" width="10.5" height="10.5" fill="none" stroke="#9a9078" stroke-width="0.3" rx="1"/>
  <rect x="2.0999999999999996" y="42.1" width="10.5" height="10.5" fill="#c4b99a" rx="1" filter="url(#bldgShadow)"/>
  <rect x="2.0999999999999996" y="42.1" width="10.5" height="10.5" fill="none" stroke="#9a9078" stroke-width="0.3" rx="1"/>
  <circle cx="0" cy="49" r="2" fill="#44cc8855" stroke="#44cc88" stroke-width="0.4" filter="url(#glow)"/>
  <rect x="-15" y="65" width="30" height="30" fill="#1c3a2a" rx="2"/>
  <rect x="-12.6" y="67.4" width="10.5" height="10.5" fill="#c4b99a" rx="1" filter="url(#bldgShadow)"/>
  <rect x="-12.6" y="67.4" width="10.5" height="10.5" fill="none" stroke="#9a9078" stroke-width="0.3" rx="1"/>
  <rect x="2.0999999999999996" y="67.4" width="10.5" height="10.5" fill="#c4b99a" rx="1" filter="url(#bldgShadow)"/>
  <rect x="2.0999999999999996" y="67.4" width="10.5" height="10.5" fill="none" stroke="#9a9078" stroke-width="0.3" rx="1"/>
  <rect x="-12.6" y="82.1" width="10.5" height="10.5" fill="#c4b99a" rx="1" filter="url(#bldgShadow)"/>
  <rect x="-12.6" y="82.1" width="10.5" height="10.5" fill="none" stroke="#9a9078" stroke-width="0.3" rx="1"/>
  <rect x="2.0999999999999996" y="82.1" width="10.5" height="10.5" fill="#c4b99a" rx="1" filter="url(#bldgShadow)"/>
  <rect x="2.0999999999999996" y="82.1" width="10.5" height="10.5" fill="none" stroke="#9a9078" stroke-width="0.3" rx="1"/>
  <circle cx="0" cy="89" r="2" fill="#44cc8855" stroke="#44cc88" stroke-width="0.4" filter="url(#glow)"/>
  <rect x="25" y="-95" width="30" height="30" fill="#1c3a2a" rx="2"/>
  <rect x="27.4" y="-92.6" width="10.5" height="10.5" fill="#c4b99a" rx="1" filter="url(#bldgShadow)"/>
  <rect x="27.4" y="-92.6" width="10.5" height="10.5" fill="none" stroke="#9a9078" stroke-width="0.3" rx="1"/>
  <rect x="42.1" y="-92.6" width="10.5" height="10.5" fill="#c4b99a" rx="1" filter="url(#bldgShadow)"/>
  <rect x="42.1" y="-92.6" width="10.5" height="10.5" fill="none" stroke="#9a9078" stroke-width="0.3" rx="1"/>
  <rect x="27.4" y="-77.9" width="10.5" height="10.5" fill="#c4b99a" rx="1" filter="url(#bldgShadow)"/>
  <rect x="27.4" y="-77.9" width="10.5" height="10.5" fill="none" stroke="#9a9078" stroke-width="0.3" rx="1"/>
  <rect x="42.1" y="-77.9" width="10.5" height="10.5" fill="#c4b99a" rx="1" filter="url(#bldgShadow)"/>
  <rect x="42.1" y="-77.9" width="10.5" height="10.5" fill="none" stroke="#9a9078" stroke-width="0.3" rx="1"/>
  <circle cx="40" cy="-71" r="2" fill="#44cc8855" stroke="#44cc88" stroke-width="0.4" filter="url(#glow)"/>
  <rect x="25" y="-55" width="30" height="30" fill="url(#grassPattern)" rx="2"/>
  <rect x="25" y="-55" width="30" height="30" fill="none" stroke="#1a5c2e" stroke-width="0.4" rx="2"/>
  <circle cx="29" cy="-47" r="2.5" fill="#2d7a42" opacity="0.7"/>
  <circle cx="29" cy="-47" r="1.5" fill="#1a5c2e" opacity="0.5"/>
  <circle cx="40.313973197437576" cy="-48.43267562907355" r="2.5" fill="#2d7a42" opacity="0.7"/>
  <circle cx="40.313973197437576" cy="-48.43267562907355" r="1.5" fill="#1a5c2e" opacity="0.5"/>
  <circle cx="50.98121471138974" cy="-50.678143058152905" r="2.5" fill="#2d7a42" opacity="0.7"/>
  <circle cx="50.98121471138974" cy="-50.678143058152905" r="1.5" fill="#1a5c2e" opacity="0.5"/>
  <circle cx="30.673311277072113" cy="-36.519375825717646" r="2.5" fill="#2d7a42" opacity="0.7"/>
  <circle cx="30.673311277072113" cy="-36.519375825717646" r="1.5" fill="#1a5c2e" opacity="0.5"/>
  <circle cx="39.541811576615736" cy="-34.183835876373216" r="2.5" fill="#2d7a42" opacity="0.7"/>
  <circle cx="39.541811576615736" cy="-34.183835876373216" r="1.5" fill="#1a5c2e" opacity="0.5"/>
  <circle cx="48.143634661007695" cy="-33.01759437627305" r="2.5" fill="#2d7a42" opacity="0.7"/>
  <circle cx="48.143634661007695" cy="-33.01759437627305" r="1.5" fill="#1a5c2e" opacity="0.5"/>
  <text x="40" y="-27" font-family="Arial, sans-serif" font-size="2.8" fill="#8890a0" text-anchor="middle" opacity="0.7">Park</text>
  <rect x="25" y="-15" width="30" height="30" fill="#1c3a2a" rx="2"/>
  <rect x="27.4" y="-12.6" width="10.5" height="10.5" fill="#c4b99a" rx="1" filter="url(#bldgShadow)"/>
  <rect x="27.4" y="-12.6" width="10.5" height="10.5" fill="none" stroke="#9a9078" stroke-width="0.3" rx="1"/>
  <rect x="42.1" y="-12.6" width="10.5" height="10.5" fill="#c4b99a" rx="1" filter="url(#bldgShadow)"/>
  <rect x="42.1" y="-12.6" width="10.5" height="10.5" fill="none" stroke="#9a9078" stroke-width="0.3" rx="1"/>
  <rect x="27.4" y="2.0999999999999996" width="10.5" height="10.5" fill="#c4b99a" rx="1" filter="url(#bldgShadow)"/>
  <rect x="27.4" y="2.0999999999999996" width="10.5" height="10.5" fill="none" stroke="#9a9078" stroke-width="0.3" rx="1"/>
  <rect x="42.1" y="2.0999999999999996" width="10.5" height="10.5" fill="#c4b99a" rx="1" filter="url(#bldgShadow)"/>
  <rect x="42.1" y="2.0999999999999996" width="10.5" height="10.5" fill="none" stroke="#9a9078" stroke-width="0.3" rx="1"/>
  <circle cx="40" cy="9" r="2" fill="#44cc8855" stroke="#44cc88" stroke-width="0.4" filter="url(#glow)"/>
  <rect x="25" y="25" width="30" height="30" fill="url(#grassPattern)" rx="2"/>
  <rect x="25" y="25" width="30" height="30" fill="none" stroke="#1a5c2e" stroke-width="0.4" rx="2"/>
  <circle cx="29" cy="33" r="2.5" fill="#2d7a42" opacity="0.7"/>
  <circle cx="29" cy="33" r="1.5" fill="#1a5c2e" opacity="0.5"/>
  <circle cx="40.313973197437576" cy="31.567324370926453" r="2.5" fill="#2d7a42" opacity="0.7"/>
  <circle cx="40.313973197437576" cy="31.567324370926453" r="1.5" fill="#1a5c2e" opacity="0.5"/>
  <circle cx="50.98121471138974" cy="29.321856941847095" r="2.5" fill="#2d7a42" opacity="0.7"/>
  <circle cx="50.98121471138974" cy="29.321856941847095" r="1.5" fill="#1a5c2e" opacity="0.5"/>
  <circle cx="30.673311277072113" cy="43.480624174282354" r="2.5" fill="#2d7a42" opacity="0.7"/>
  <circle cx="30.673311277072113" cy="43.480624174282354" r="1.5" fill="#1a5c2e" opacity="0.5"/>
  <circle cx="39.541811576615736" cy="45.816164123626784" r="2.5" fill="#2d7a42" opacity="0.7"/>
  <circle cx="39.541811576615736" cy="45.816164123626784" r="1.5" fill="#1a5c2e" opacity="0.5"/>
  <circle cx="48.143634661007695" cy="46.98240562372695" r="2.5" fill="#2d7a42" opacity="0.7"/>
  <circle cx="48.143634661007695" cy="46.98240562372695" r="1.5" fill="#1a5c2e" opacity="0.5"/>
  <text x="40" y="53" font-family="Arial, sans-serif" font-size="2.8" fill="#8890a0" text-anchor="middle" opacity="0.7">Park</text>
  <rect x="25" y="65" width="30" height="30" fill="#1c3a2a" rx="2"/>
  <rect x="27.4" y="67.4" width="10.5" height="10.5" fill="#c4b99a" rx="1" filter="url(#bldgShadow)"/>
  <rect x="27.4" y="67.4" width="10.5" height="10.5" fill="none" stroke="#9a9078" stroke-width="0.3" rx="1"/>
  <rect x="42.1" y="67.4" width="10.5" height="10.5" fill="#c4b99a" rx="1" filter="url(#bldgShadow)"/>
  <rect x="42.1" y="67.4" width="10.5" height="10.5" fill="none" stroke="#9a9078" stroke-width="0.3" rx="1"/>
  <rect x="27.4" y="82.1" width="10.5" height="10.5" fill="#c4b99a" rx="1" filter="url(#bldgShadow)"/>
  <rect x="27.4" y="82.1" width="10.5" height="10.5" fill="none" stroke="#9a9078" stroke-width="0.3" rx="1"/>
  <rect x="42.1" y="82.1" width="10.5" height="10.5" fill="#c4b99a" rx="1" filter="url(#bldgShadow)"/>
  <rect x="42.1" y="82.1" width="10.5" height="10.5" fill="none" stroke="#9a9078" stroke-width="0.3" rx="1"/>
  <circle cx="40" cy="89" r="2" fill="#44cc8855" stroke="#44cc88" stroke-width="0.4" filter="url(#glow)"/>
  <rect x="65" y="-95" width="30" height="30" fill="#1c3a2a" rx="2"/>
  <rect x="67.4" y="-92.6" width="10.5" height="10.5" fill="#c4b99a" rx="1" filter="url(#bldgShadow)"/>
  <rect x="67.4" y="-92.6" width="10.5" height="10.5" fill="none" stroke="#9a9078" stroke-width="0.3" rx="1"/>
  <rect x="82.1" y="-92.6" width="10.5" height="10.5" fill="#c4b99a" rx="1" filter="url(#bldgShadow)"/>
  <rect x="82.1" y="-92.6" width="10.5" height="10.5" fill="none" stroke="#9a9078" stroke-width="0.3" rx="1"/>
  <rect x="67.4" y="-77.9" width="10.5" height="10.5" fill="#c4b99a" rx="1" filter="url(#bldgShadow)"/>
  <rect x="67.4" y="-77.9" width="10.5" height="10.5" fill="none" stroke="#9a9078" stroke-width="0.3" rx="1"/>
  <rect x="82.1" y="-77.9" width="10.5" height="10.5" fill="#c4b99a" rx="1" filter="url(#bldgShadow)"/>
  <rect x="82.1" y="-77.9" width="10.5" height="10.5" fill="none" stroke="#9a9078" stroke-width="0.3" rx="1"/>
  <circle cx="80" cy="-71" r="2" fill="#44cc8855" stroke="#44cc88" stroke-width="0.4" filter="url(#glow)"/>
  <rect x="65" y="-55" width="30" height="30" fill="#1c3a2a" rx="2"/>
  <rect x="67.4" y="-52.6" width="10.5" height="10.5" fill="#c4b99a" rx="1" filter="url(#bldgShadow)"/>
  <rect x="67.4" y="-52.6" width="10.5" height="10.5" fill="none" stroke="#9a9078" stroke-width="0.3" rx="1"/>
  <rect x="82.1" y="-52.6" width="10.5" height="10.5" fill="#c4b99a" rx="1" filter="url(#bldgShadow)"/>
  <rect x="82.1" y="-52.6" width="10.5" height="10.5" fill="none" stroke="#9a9078" stroke-width="0.3" rx="1"/>
  <rect x="67.4" y="-37.9" width="10.5" height="10.5" fill="#c4b99a" rx="1" filter="url(#bldgShadow)"/>
  <rect x="67.4" y="-37.9" width="10.5" height="10.5" fill="none" stroke="#9a9078" stroke-width="0.3" rx="1"/>
  <rect x="82.1" y="-37.9" width="10.5" height="10.5" fill="#c4b99a" rx="1" filter="url(#bldgShadow)"/>
  <rect x="82.1" y="-37.9" width="10.5" height="10.5" fill="none" stroke="#9a9078" stroke-width="0.3" rx="1"/>
  <circle cx="80" cy="-31" r="2" fill="#44cc8855" stroke="#44cc88" stroke-width="0.4" filter="url(#glow)"/>
  <rect x="65" y="-15" width="30" height="30" fill="#1c3a2a" rx="2"/>
  <rect x="67.4" y="-12.6" width="10.5" height="10.5" fill="#c4b99a" rx="1" filter="url(#bldgShadow)"/>
  <rect x="67.4" y="-12.6" width="10.5" height="10.5" fill="none" stroke="#9a9078" stroke-width="0.3" rx="1"/>
  <rect x="82.1" y="-12.6" width="10.5" height="10.5" fill="#c4b99a" rx="1" filter="url(#bldgShadow)"/>
  <rect x="82.1" y="-12.6" width="10.5" height="10.5" fill="none" stroke="#9a9078" stroke-width="0.3" rx="1"/>
  <rect x="67.4" y="2.0999999999999996" width="10.5" height="10.5" fill="#c4b99a" rx="1" filter="url(#bldgShadow)"/>
  <rect x="67.4" y="2.0999999999999996" width="10.5" height="10.5" fill="none" stroke="#9a9078" stroke-width="0.3" rx="1"/>
  <rect x="82.1" y="2.0999999999999996" width="10.5" height="10.5" fill="#c4b99a" rx="1" filter="url(#bldgShadow)"/>
  <rect x="82.1" y="2.0999999999999996" width="10.5" height="10.5" fill="none" stroke="#9a9078" stroke-width="0.3" rx="1"/>
  <circle cx="80" cy="9" r="2" fill="#44cc8855" stroke="#44cc88" stroke-width="0.4" filter="url(#glow)"/>
  <rect x="65" y="25" width="30" height="30" fill="#1c3a2a" rx="2"/>
  <rect x="67.4" y="27.4" width="10.5" height="10.5" fill="#c4b99a" rx="1" filter="url(#bldgShadow)"/>
  <rect x="67.4" y="27.4" width="10.5" height="10.5" fill="none" stroke="#9a9078" stroke-width="0.3" rx="1"/>
  <rect x="82.1" y="27.4" width="10.5" height="10.5" fill="#c4b99a" rx="1" filter="url(#bldgShadow)"/>
  <rect x="82.1" y="27.4" width="10.5" height="10.5" fill="none" stroke="#9a9078" stroke-width="0.3" rx="1"/>
  <rect x="67.4" y="42.1" width="10.5" height="10.5" fill="#c4b99a" rx="1" filter="url(#bldgShadow)"/>
  <rect x="67.4" y="42.1" width="10.5" height="10.5" fill="none" stroke="#9a9078" stroke-width="0.3" rx="1"/>
  <rect x="82.1" y="42.1" width="10.5" height="10.5" fill="#c4b99a" rx="1" filter="url(#bldgShadow)"/>
  <rect x="82.1" y="42.1" width="10.5" height="10.5" fill="none" stroke="#9a9078" stroke-width="0.3" rx="1"/>
  <circle cx="80" cy="49" r="2" fill="#44cc8855" stroke="#44cc88" stroke-width="0.4" filter="url(#glow)"/>
  <rect x="65" y="65" width="30" height="30" fill="#1c3a2a" rx="2"/>
  <rect x="67.4" y="67.4" width="10.5" height="10.5" fill="#c4b99a" rx="1" filter="url(#bldgShadow)"/>
  <rect x="67.4" y="67.4" width="10.5" height="10.5" fill="none" stroke="#9a9078" stroke-width="0.3" rx="1"/>
  <rect x="82.1" y="67.4" width="10.5" height="10.5" fill="#c4b99a" rx="1" filter="url(#bldgShadow)"/>
  <rect x="82.1" y="67.4" width="10.5" height="10.5" fill="none" stroke="#9a9078" stroke-width="0.3" rx="1"/>
  <rect x="67.4" y="82.1" width="10.5" height="10.5" fill="#c4b99a" rx="1" filter="url(#bldgShadow)"/>
  <rect x="67.4" y="82.1" width="10.5" height="10.5" fill="none" stroke="#9a9078" stroke-width="0.3" rx="1"/>
  <rect x="82.1" y="82.1" width="10.5" height="10.5" fill="#c4b99a" rx="1" filter="url(#bldgShadow)"/>
  <rect x="82.1" y="82.1" width="10.5" height="10.5" fill="none" stroke="#9a9078" stroke-width="0.3" rx="1"/>
  <circle cx="80" cy="89" r="2" fill="#44cc8855" stroke="#44cc88" stroke-width="0.4" filter="url(#glow)"/>
  <rect x="-115" y="-115" width="230" height="230" fill="none" stroke="rgba(255,255,255,0.08)" stroke-width="0.5" rx="6"/>
</svg>